<mxfile host="app.diagrams.net" modified="2023-06-04T18:56:43.747Z" agent="Mozilla/5.0 (Windows NT 10.0; Win64; x64) AppleWebKit/537.36 (KHTML, like Gecko) Chrome/114.0.0.0 Safari/537.36" etag="R7ujXcOT5BcvVqXMB5ye" version="21.3.4" type="device">
  <diagram name="Page-1" id="qHw1JFBlz0CdFhUstOGD">
    <mxGraphModel dx="819" dy="437" grid="1" gridSize="10" guides="1" tooltips="1" connect="1" arrows="1" fold="1" page="1" pageScale="1" pageWidth="827" pageHeight="1169" math="0" shadow="0">
      <root>
        <mxCell id="0" />
        <mxCell id="1" parent="0" />
        <mxCell id="Pnn7FIeExJAPUwYJSJhQ-2" style="edgeStyle=orthogonalEdgeStyle;rounded=0;orthogonalLoop=1;jettySize=auto;html=1;entryX=0.5;entryY=0;entryDx=0;entryDy=0;" parent="1" source="Pnn7FIeExJAPUwYJSJhQ-1" target="Pnn7FIeExJAPUwYJSJhQ-3" edge="1">
          <mxGeometry relative="1" as="geometry">
            <mxPoint x="670" y="320" as="targetPoint" />
            <Array as="points">
              <mxPoint x="560" y="300" />
            </Array>
          </mxGeometry>
        </mxCell>
        <mxCell id="Pnn7FIeExJAPUwYJSJhQ-13" value="WIFI" style="edgeStyle=orthogonalEdgeStyle;rounded=0;orthogonalLoop=1;jettySize=auto;html=1;" parent="1" source="Pnn7FIeExJAPUwYJSJhQ-1" target="Pnn7FIeExJAPUwYJSJhQ-12" edge="1">
          <mxGeometry relative="1" as="geometry" />
        </mxCell>
        <mxCell id="Pnn7FIeExJAPUwYJSJhQ-15" value="ESP-NOW" style="edgeStyle=orthogonalEdgeStyle;rounded=0;orthogonalLoop=1;jettySize=auto;html=1;entryX=0.5;entryY=0;entryDx=0;entryDy=0;" parent="1" source="Pnn7FIeExJAPUwYJSJhQ-1" target="Pnn7FIeExJAPUwYJSJhQ-14" edge="1">
          <mxGeometry relative="1" as="geometry" />
        </mxCell>
        <mxCell id="Pnn7FIeExJAPUwYJSJhQ-1" value="Server/Panneau" style="rounded=0;whiteSpace=wrap;html=1;" parent="1" vertex="1">
          <mxGeometry x="160" y="280" width="100" height="40" as="geometry" />
        </mxCell>
        <mxCell id="Pnn7FIeExJAPUwYJSJhQ-35" value="" style="edgeStyle=orthogonalEdgeStyle;rounded=0;orthogonalLoop=1;jettySize=auto;html=1;" parent="1" source="Pnn7FIeExJAPUwYJSJhQ-3" target="Pnn7FIeExJAPUwYJSJhQ-34" edge="1">
          <mxGeometry relative="1" as="geometry" />
        </mxCell>
        <mxCell id="Pnn7FIeExJAPUwYJSJhQ-3" value="Serrure(s)**" style="rounded=0;whiteSpace=wrap;html=1;" parent="1" vertex="1">
          <mxGeometry x="510" y="320" width="100" height="60" as="geometry" />
        </mxCell>
        <mxCell id="Pnn7FIeExJAPUwYJSJhQ-12" value="Telephone(s)**" style="rounded=0;whiteSpace=wrap;html=1;" parent="1" vertex="1">
          <mxGeometry x="40" y="325" width="100" height="40" as="geometry" />
        </mxCell>
        <mxCell id="Pnn7FIeExJAPUwYJSJhQ-14" value="Capteur(s)*" style="rounded=0;whiteSpace=wrap;html=1;" parent="1" vertex="1">
          <mxGeometry x="300" y="320" width="140" height="70" as="geometry" />
        </mxCell>
        <mxCell id="L2Y73AesUkdKJAkDmZRX-3" style="edgeStyle=orthogonalEdgeStyle;rounded=0;orthogonalLoop=1;jettySize=auto;html=1;entryX=0.5;entryY=1;entryDx=0;entryDy=0;" edge="1" parent="1" source="Pnn7FIeExJAPUwYJSJhQ-28" target="Pnn7FIeExJAPUwYJSJhQ-3">
          <mxGeometry relative="1" as="geometry">
            <Array as="points">
              <mxPoint x="450" y="410" />
              <mxPoint x="560" y="410" />
            </Array>
          </mxGeometry>
        </mxCell>
        <mxCell id="L2Y73AesUkdKJAkDmZRX-4" style="edgeStyle=orthogonalEdgeStyle;rounded=0;orthogonalLoop=1;jettySize=auto;html=1;entryX=0.5;entryY=1;entryDx=0;entryDy=0;" edge="1" parent="1" source="Pnn7FIeExJAPUwYJSJhQ-28" target="Pnn7FIeExJAPUwYJSJhQ-14">
          <mxGeometry relative="1" as="geometry">
            <Array as="points">
              <mxPoint x="450" y="410" />
              <mxPoint x="370" y="410" />
            </Array>
          </mxGeometry>
        </mxCell>
        <mxCell id="Pnn7FIeExJAPUwYJSJhQ-28" value="Source d&#39;alimentation" style="text;html=1;align=center;verticalAlign=middle;resizable=0;points=[];autosize=1;strokeColor=none;fillColor=none;" parent="1" vertex="1">
          <mxGeometry x="380" y="465" width="140" height="30" as="geometry" />
        </mxCell>
        <mxCell id="Pnn7FIeExJAPUwYJSJhQ-34" value="Moteur courant continue" style="text;html=1;align=center;verticalAlign=middle;resizable=0;points=[];autosize=1;strokeColor=none;fillColor=none;" parent="1" vertex="1">
          <mxGeometry x="640" y="335" width="150" height="30" as="geometry" />
        </mxCell>
        <mxCell id="L2Y73AesUkdKJAkDmZRX-7" value="*Plusieurs variations de capteur&lt;br&gt;et le nombre de capteur &lt;br&gt;totaux varient selon le besoin" style="text;html=1;align=left;verticalAlign=middle;resizable=0;points=[];autosize=1;strokeColor=none;fillColor=none;" vertex="1" parent="1">
          <mxGeometry x="110" y="210" width="190" height="60" as="geometry" />
        </mxCell>
        <mxCell id="L2Y73AesUkdKJAkDmZRX-8" value="** Nombres totaux varient selon le besoin" style="text;html=1;align=center;verticalAlign=middle;resizable=0;points=[];autosize=1;strokeColor=none;fillColor=none;" vertex="1" parent="1">
          <mxGeometry x="340" y="240" width="240" height="30" as="geometry" />
        </mxCell>
        <mxCell id="L2Y73AesUkdKJAkDmZRX-10" style="edgeStyle=orthogonalEdgeStyle;rounded=0;orthogonalLoop=1;jettySize=auto;html=1;entryX=0.5;entryY=1;entryDx=0;entryDy=0;" edge="1" parent="1" source="L2Y73AesUkdKJAkDmZRX-9" target="Pnn7FIeExJAPUwYJSJhQ-1">
          <mxGeometry relative="1" as="geometry" />
        </mxCell>
        <mxCell id="L2Y73AesUkdKJAkDmZRX-9" value="Source d&#39;alimentation" style="text;html=1;align=center;verticalAlign=middle;resizable=0;points=[];autosize=1;strokeColor=none;fillColor=none;" vertex="1" parent="1">
          <mxGeometry x="140" y="465" width="140" height="30" as="geometry" />
        </mxCell>
      </root>
    </mxGraphModel>
  </diagram>
</mxfile>
